<?xml version="1.0" standalone="no"?>
<!DOCTYPE svg PUBLIC "-//W3C//DTD SVG 20010904//EN"
 "http://www.w3.org/TR/2001/REC-SVG-20010904/DTD/svg10.dtd">
<svg version="1.0" xmlns="http://www.w3.org/2000/svg"
 width="32.000000pt" height="32.000000pt" viewBox="0 0 32.000000 32.000000"
 preserveAspectRatio="xMidYMid meet">
<metadata>
Created by potrace 1.10, written by Peter Selinger 2001-2011
</metadata>
<g transform="translate(0.000000,32.000000) scale(0.100000,-0.100000)"
fill="#000000" stroke="none">
<path d="M112 243 c-39 -45 -41 -46 -36 -19 l7 28 -27 -17 c-24 -16 -26 -22
-26 -91 0 -73 0 -74 26 -74 26 0 27 1 21 45 -4 25 -3 45 1 45 4 -1 23 -21 42
-45 33 -43 38 -45 85 -45 39 0 53 4 63 20 7 11 19 20 28 20 11 0 14 8 12 27
-3 26 -15 37 -84 79 -15 10 -17 14 -6 25 9 10 19 11 42 2 26 -10 30 -9 36 9 9
29 -11 38 -82 38 -60 0 -61 -1 -102 -47z m98 -73 c39 -16 57 -37 42 -52 -16
-16 -57 -2 -97 34 l-36 31 23 24 23 24 8 -24 c4 -14 21 -30 37 -37z"/>
</g>
</svg>
